<?xml version="1.0" standalone="no"?>
<!DOCTYPE svg PUBLIC "-//W3C//DTD SVG 20010904//EN"
 "http://www.w3.org/TR/2001/REC-SVG-20010904/DTD/svg10.dtd">
<svg version="1.0" xmlns="http://www.w3.org/2000/svg"
 width="700.000000pt" height="700.000000pt" viewBox="0 0 700.000000 700.000000"
 preserveAspectRatio="xMidYMid meet">
<metadata>
Created by potrace 1.14, written by Peter Selinger 2001-2017
</metadata>
<g transform="translate(0.000000,700.000000) scale(0.100000,-0.100000)"
fill="#000000" stroke="none">
<path d="M0 3500 l0 -3500 3500 0 3500 0 0 3500 0 3500 -3500 0 -3500 0 0
-3500z m3266 1253 c-3 -186 -9 -380 -12 -430 l-6 -93 525 0 526 0 3 -972 c3
-1010 3 -1004 42 -1030 6 -4 120 -8 253 -8 l242 0 20 25 c28 37 40 105 51 294
5 91 10 169 10 174 0 4 19 -5 43 -20 23 -14 78 -41 121 -59 l80 -33 -3 -63
c-5 -148 -37 -333 -71 -414 -24 -55 -74 -110 -124 -137 -40 -21 -50 -22 -381
-22 -371 0 -388 2 -451 58 -35 30 -57 65 -78 121 -7 21 -12 310 -16 926 l-5
895 -400 0 -399 0 -22 -176 c-101 -821 -362 -1340 -853 -1700 -96 -71 -275
-179 -296 -179 -6 0 -19 14 -29 31 -10 17 -51 63 -91 103 l-73 72 67 34 c204
105 439 299 576 475 196 252 326 573 395 973 24 140 49 360 42 367 -3 3 -212
5 -464 5 l-458 0 0 130 0 130 469 0 468 0 7 46 c3 26 6 151 6 279 0 127 3 300
7 383 l6 152 140 0 140 0 -7 -337z"/>
</g>
</svg>
